<?xml version="1.0" standalone="no"?>
<!DOCTYPE svg PUBLIC "-//W3C//DTD SVG 20010904//EN" "http://www.w3.org/TR/2001/REC-SVG-20010904/DTD/svg10.dtd">
<!-- Created using Karbon, part of Calligra: http://www.calligra.org/karbon -->
<svg xmlns="http://www.w3.org/2000/svg" xmlns:xlink="http://www.w3.org/1999/xlink" width="595.277pt" height="595.277pt" viewBox="0 0 750 750">
<defs>
  <linearGradient id="gradient0" gradientTransform="" gradientUnits="objectBoundingBox" x1="0.49998958333" y1="0.00000000000" x2="0.49998958333" y2="1.00001041667" spreadMethod="pad">
   <stop stop-color="#e16d35" offset="0.00000000000" stop-opacity="1.00000000000"/>
   <stop stop-color="#c93d1d" offset="1.00000000000" stop-opacity="1.00000000000"/>
  </linearGradient>
 </defs>
<g id="layer0">
  <path id="shape0" transform="matrix(14.3229 0 0 21.901 0 0)" fill="url(#gradient0)" fill-rule="evenodd" d="M51.7604 29.6191C51.7604 31.9555 48.8629 33.8505 45.2904 33.8505L6.47005 33.8505C2.8975 33.8505 0 31.9555 0 29.6191L0 4.23131C0 1.89492 2.8975 0 6.47005 0L45.2904 0C48.8629 0 51.7604 1.89492 51.7604 4.23131Z"/>
  <path id="shape1" transform="matrix(14.3229 0 0 21.901 193.449 161.555)" fill="#b7321c" d="M15.2823 10.835C14.6827 10.6664 14.0875 10.5733 13.4944 10.5564C13.0814 10.5479 12.3826 10.5226 11.397 10.4809C10.4103 10.4386 9.63499 10.4132 9.06778 10.4055C8.53939 10.397 8.02718 10.3843 7.53114 10.3667C7.0351 10.3505 6.59945 10.3082 6.22635 10.2405C5.83922 10.1812 5.51033 10.0698 5.23966 9.90478C4.969 9.74117 4.83421 9.50281 4.83421 9.1904C4.83421 8.88715 4.99488 8.64667 5.3173 8.47037C5.63973 8.29407 5.94813 8.17136 6.24468 8.10366L8.5836 8.10366C10.3877 8.10366 11.9696 7.72425 13.3294 6.96614C14.6892 6.20733 15.3685 5.28067 15.3685 4.18476C15.3685 3.76375 15.2531 3.33356 15.0213 2.89492C14.7895 2.45698 14.4347 2.05641 13.9581 1.69393L13.9581 1.61847L18.4429 1.61847L18.4429 0.404795L11.7927 0.404795C11.1997 0.287024 10.6163 0.189704 10.0426 0.114245C9.46892 0.038787 8.89201 0 8.31294 0C6.21233 0 4.48806 0.379407 3.14229 1.13822C1.79544 1.89704 1.12148 2.866 1.12148 4.04583C1.12148 4.83004 1.46223 5.51903 2.1459 
6.11283C2.82849 6.70733 3.78822 7.19393 5.02615 7.57333L5.02615 7.76304C4.04702 8.03243 3.3159 8.35542 2.83173 8.72989C2.34863 9.10507 2.10708 9.5155 2.10708 9.96261C2.10708 10.3166 2.2106 10.6135 2.41656 10.854C2.62253 11.0945 2.89319 11.3032 3.22856 11.4802C3.5251 11.6319 3.8788 11.7644 4.2918 11.878C4.70373 11.9915 5.10379 12.0867 5.48984 12.1622L5.48984 12.3392C3.89174 12.3822 2.57724 12.6509 1.54634 13.1481C0.515447 13.6453 0 14.3237 0 15.184C0 16.2461 0.716019 17.0522 2.1459 17.6051C3.57578 18.1579 5.73462 18.4337 8.62134 18.4337C10.3866 18.4337 11.8693 18.3237 13.0684 18.1043C14.2675 17.885 15.2974 17.5776 16.1611 17.1812C16.9731 16.7933 17.5781 16.3364 17.9792 15.8096C18.3782 15.2828 18.5788 14.7207 18.5788 14.122C18.5788 13.5233 18.4299 13.0218 18.1345 12.6171C17.8379 12.213 17.4314 11.8505 16.916 11.5296C16.4264 11.2355 15.8818 11.0035 15.2823 10.835ZM10.7974 6.35331C10.1979 6.93934 9.34383 7.23201 8.23638 7.23201C7.2443 7.23201 6.43555 6.93723 5.81011 6.34696C5.18467 5.7574 4.87303 4.99435 4.87303 
4.05853C4.87303 3.64598 4.92802 3.2433 5.03694 2.8512C5.14585 2.45909 5.32917 2.12412 5.58797 1.84626C5.85863 1.54302 6.21017 1.30888 6.64151 1.14457C7.07285 0.980253 7.59153 0.897742 8.19756 0.897742C9.30501 0.897742 10.1655 1.19111 10.778 1.77644C11.3894 2.36248 11.6968 3.14809 11.6968 4.13399C11.6968 5.0275 11.397 5.76727 10.7974 6.35331ZM13.7747 16.7581C12.6856 17.2348 11.1932 17.4725 9.29962 17.4725C8.20403 17.4725 7.27665 17.4027 6.51534 17.2644C5.75511 17.1255 5.14908 16.9464 4.69834 16.7264C4.22171 16.4993 3.88634 16.2503 3.69332 15.9802C3.5003 15.7108 3.40325 15.4288 3.40325 15.1333C3.40325 14.476 3.69656 13.9393 4.28317 13.5218C4.86871 13.1044 5.85863 12.8068 7.25077 12.6297C8.73241 12.6297 10.0351 12.6509 11.1554 12.6932C12.2769 12.7362 13.0177 12.7736 13.379 12.8068C14.0616 12.9161 14.5706 13.1227 14.907 13.4266C15.2424 13.7306 15.4095 14.117 15.4095 14.5895C15.4074 15.5585 14.8639 16.2821 13.7747 16.7581Z"/>
  <path id="shape2" transform="matrix(14.3229 0 0 21.901 465.806 176.845)" fill="#b7321c" d="M3.76234 3.42595L3.76234 5.89774L5.23751 5.89774L5.23751 3.42595L8.99984 3.42595L8.99984 2.47743L5.23751 2.47743L5.23751 0L3.76234 0L3.76234 2.47743L0 2.47743L0 3.42595Z"/>
  <path id="shape3" transform="matrix(14.3229 0 0 21.901 193.449 182.792)" fill="#ffffff" d="M15.2823 10.835C14.6827 10.6664 14.0875 10.5733 13.4944 10.5564C13.0814 10.5479 12.3826 10.5226 11.397 10.4809C10.4103 10.4386 9.63499 10.4132 9.06778 10.4055C8.53939 10.397 8.02718 10.3843 7.53114 10.3667C7.0351 10.3505 6.59945 10.3082 6.22635 10.2405C5.83922 10.1812 5.51033 10.0698 5.23966 9.90478C4.969 9.74117 4.83421 9.50281 4.83421 9.1904C4.83421 8.88715 4.99488 8.64667 5.3173 8.47037C5.63973 8.29407 5.94813 8.17136 6.24468 8.10366L8.5836 8.10366C10.3877 8.10366 11.9696 7.72425 13.3294 6.96614C14.6892 6.20733 15.3685 5.28067 15.3685 4.18476C15.3685 3.76375 15.2531 3.33356 15.0213 2.89492C14.7895 2.45698 14.4347 2.05641 13.9581 1.69393L13.9581 1.61847L18.4429 1.61847L18.4429 0.404795L11.7927 0.404795C11.1997 0.287024 10.6163 0.189704 10.0426 0.114245C9.46892 0.038787 8.89201 0 8.31294 0C6.21233 0 4.48806 0.379407 3.14229 1.13822C1.79544 1.89704 1.12148 2.866 1.12148 4.04583C1.12148 4.83004 1.46223 5.51903 2.1459 
6.11283C2.82849 6.70733 3.78822 7.19393 5.02615 7.57333L5.02615 7.76304C4.04702 8.03243 3.3159 8.35542 2.83173 8.72989C2.34863 9.10507 2.10708 9.5155 2.10708 9.96261C2.10708 10.3166 2.2106 10.6135 2.41656 10.854C2.62253 11.0945 2.89319 11.3032 3.22856 11.4802C3.5251 11.6319 3.8788 11.7644 4.2918 11.878C4.70373 11.9915 5.10379 12.0867 5.48984 12.1622L5.48984 12.3392C3.89174 12.3822 2.57724 12.6509 1.54634 13.1481C0.515447 13.6453 0 14.3237 0 15.184C0 16.2461 0.716019 17.0522 2.1459 17.6051C3.57578 18.1579 5.73462 18.4337 8.62134 18.4337C10.3866 18.4337 11.8693 18.3237 13.0684 18.1043C14.2675 17.885 15.2974 17.5776 16.1611 17.1812C16.9731 16.7933 17.5781 16.3364 17.9792 15.8096C18.3782 15.2828 18.5788 14.7207 18.5788 14.122C18.5788 13.5233 18.4299 13.0218 18.1345 12.6171C17.8379 12.213 17.4314 11.8505 16.916 11.5296C16.4264 11.2355 15.8818 11.0035 15.2823 10.835ZM10.7974 6.35331C10.1979 6.93934 9.34383 7.23201 8.23638 7.23201C7.2443 7.23201 6.43555 6.93723 5.81011 6.34696C5.18467 5.7574 4.87303 4.99435 4.87303 
4.05853C4.87303 3.64598 4.92802 3.2433 5.03694 2.8512C5.14585 2.45909 5.32917 2.12412 5.58797 1.84626C5.85863 1.54302 6.21017 1.30888 6.64151 1.14457C7.07285 0.980253 7.59153 0.897742 8.19756 0.897742C9.30501 0.897742 10.1655 1.19111 10.778 1.77644C11.3894 2.36248 11.6968 3.14809 11.6968 4.13399C11.6968 5.0275 11.397 5.76727 10.7974 6.35331ZM13.7747 16.7581C12.6856 17.2348 11.1932 17.4725 9.29962 17.4725C8.20403 17.4725 7.27665 17.4027 6.51534 17.2644C5.75511 17.1255 5.14908 16.9464 4.69834 16.7264C4.22171 16.4993 3.88634 16.2503 3.69332 15.9802C3.5003 15.7108 3.40325 15.4288 3.40325 15.1333C3.40325 14.476 3.69656 13.9393 4.28317 13.5218C4.86871 13.1044 5.85863 12.8068 7.25077 12.6297C8.73241 12.6297 10.0351 12.6509 11.1554 12.6932C12.2769 12.7362 13.0177 12.7736 13.379 12.8068C14.0616 12.9161 14.5706 13.1227 14.907 13.4266C15.2424 13.7306 15.4095 14.117 15.4095 14.5895C15.4074 15.5585 14.8639 16.2821 13.7747 16.7581Z"/>
  <path id="shape4" transform="matrix(14.3229 0 0 21.901 465.806 198.082)" fill="#ffffff" d="M3.76234 3.42595L3.76234 5.89774L5.23751 5.89774L5.23751 3.42595L8.99984 3.42595L8.99984 2.47743L5.23751 2.47743L5.23751 0L3.76234 0L3.76234 2.47743L0 2.47743L0 3.42595Z"/>
 </g>
</svg>
