<?xml version="1.0" standalone="no"?>
<!DOCTYPE svg PUBLIC "-//W3C//DTD SVG 20010904//EN" "http://www.w3.org/TR/2001/REC-SVG-20010904/DTD/svg10.dtd">
<!-- Created using Karbon, part of Calligra: http://www.calligra.org/karbon -->
<svg xmlns="http://www.w3.org/2000/svg" xmlns:xlink="http://www.w3.org/1999/xlink" width="409.6pt" height="409.6pt">
<defs/>
<g id="layer0">
  <path id="shape0" transform="translate(14.87, 14.868)" fill="#2d70bd" d="M444.784 218.505L354.253 309.005C304.284 359.005 223.222 359.005 173.253 309.005C165.378 301.161 159.222 292.317 153.815 283.192L195.878 241.129C197.878 239.113 200.347 237.957 202.706 236.598C205.612 246.536 210.69 255.942 218.503 263.754C243.456 288.723 284.066 288.692 309.003 263.754L399.503 173.254C424.472 148.285 424.472 107.691 399.503 82.738C374.565 57.785 333.972 57.785 309.003 82.738L276.815 114.957C250.706 104.785 222.565 102.051 195.174 106.066L263.752 37.488C313.752 -12.496 394.783 -12.496 444.783 37.488C494.753 87.474 494.753 168.521 444.784 218.505ZM205.456 367.318L173.253 399.537C148.3 424.475 107.69 424.475 82.737 399.537C57.784 374.568 57.784 333.974 82.737 309.006L173.253 218.506C198.222 193.537 238.8 193.537 263.753 218.506C271.55 226.303 276.628 235.709 279.566 245.631C281.941 244.256 284.379 243.131 286.379 241.131L328.442 199.084C323.067 189.928 316.879 181.115 309.004 173.256C259.035 123.272 177.973 123.272 127.988 173.256L37.488 263.756C-12.496 313.756 -12.496 394.787 37.488 444.787C87.472 494.756 168.519 494.756 218.504 444.787L287.098 376.193C259.691 380.224 231.55 377.474 205.456 367.318Z"/>
 </g>
</svg>
