<?xml version="1.0" standalone="no"?>
<!DOCTYPE svg PUBLIC "-//W3C//DTD SVG 20010904//EN" "http://www.w3.org/TR/2001/REC-SVG-20010904/DTD/svg10.dtd">
<!-- Created using Karbon, part of Calligra: http://www.calligra.org/karbon -->
<svg xmlns="http://www.w3.org/2000/svg" xmlns:xlink="http://www.w3.org/1999/xlink" width="750.4pt" height="800pt">
<defs/>
<g id="layer0">
  <path id="shape0" transform="translate(0, 31)" fill="#000080" d="M833.75 728.75C862.083 728.75 886.458 738.958 906.875 759.375C927.292 779.792 937.5 804.583 937.5 833.75C937.5 862.083 927.5 886.458 907.5 906.875C887.5 927.292 862.917 937.5 833.75 937.5L103.75 937.5C74.5833 937.5 50 927.292 30 906.875C10 886.458 0 862.083 0 833.75C0 804.583 10.2083 779.792 30.625 759.375C51.0417 738.958 75.4167 728.75 103.75 728.75ZM833.75 365C862.917 365 887.5 375.208 907.5 395.625C927.5 416.042 937.5 440.417 937.5 468.75C937.5 497.083 927.5 521.458 907.5 541.875C887.5 562.292 862.917 572.5 833.75 572.5L103.75 572.5C74.5833 572.5 50 562.292 30 541.875C10 521.458 0 497.083 0 468.75C0 440.417 10 416.042 30 395.625C50 375.208 74.5833 365 103.75 365ZM833.75 0C862.917 0 887.5 10.2083 907.5 30.625C927.5 51.0417 937.5 75.4167 937.5 103.75C937.5 132.917 927.292 157.708 906.875 178.125C886.458 198.542 862.083 208.75 833.75 208.75L103.75 208.75C75.4167 208.75 51.0417 198.542 30.625 178.125C10.2083 157.708 0 132.917 0 103.75C0 75.4167 10 51.0417 30 30.625C50 10.2083 74.5833 0 103.75 0Z"/>
 </g>
</svg>
