<?xml version="1.0" standalone="no"?>
<!DOCTYPE svg PUBLIC "-//W3C//DTD SVG 20010904//EN" "http://www.w3.org/TR/2001/REC-SVG-20010904/DTD/svg10.dtd">
<!-- Created using Karbon, part of Calligra: http://www.calligra.org/karbon -->
<svg xmlns="http://www.w3.org/2000/svg" xmlns:xlink="http://www.w3.org/1999/xlink" width="134.929pt" height="88.5658pt">
<defs/>
<g id="layer0">
  <ellipse id="shape0" transform="matrix(1 0.0012193 2.44929e-16 1 18.4882 8.80441)" rx="53.74316165725pt" ry="37.10894928464pt" cx="53.74316165725pt" cy="37.10894928464pt" fill="#ccf1ff" fill-rule="evenodd" stroke="#000000" stroke-width="0.17007903480" stroke-linecap="square" stroke-linejoin="miter" stroke-miterlimit="1.98425540600"/>
  <path id="shape1" transform="translate(2.44879, 1.02104)" fill="#6495ed" fill-rule="evenodd" stroke="#000000" stroke-width="0.00000000000" stroke-linecap="square" stroke-linejoin="miter" stroke-miterlimit="2.00000000000" d="M0.0888875 57.1014L0.0888875 108.197L78.0412 108.197L79.3644 108.231L81.5012 108.249L83.6381 108.231L85.7616 108.176L87.8706 108.086L89.9647 107.96L92.0435 107.801L94.1058 107.606L96.1513 107.377L98.1793 107.115L100.189 106.819L102.179 106.492L104.151 106.132L106.102 105.74L108.032 105.317L109.94 104.863L111.826 104.378L113.689 103.864L115.529 103.321L117.344 102.748L119.134 102.146L120.899 101.517L122.637 100.859L124.348 100.175L126.032 99.463L127.687 98.7256L129.313 97.9618L130.911 97.1726L132.477 96.3582L134.011 95.52L135.516 94.6565L136.988 93.7703L138.426 92.8597L139.83 91.9271L141.2 90.972L142.535 89.9948L143.835 88.9961L145.098 87.9766L146.324 86.9362L147.512 85.8761L148.663 84.7959L149.774 83.6966L150.845 82.5787L151.876 81.4422L152.866 80.2877L153.813 79.116L154.719 77.9271L155.582 76.7216L156.401 75.4999L157.174 74.2628L157.904 73.0102L158.588 71.7429L159.225 70.4612L159.814 69.1657L160.357 67.8567L160.85 66.5345L161.295 65.2L161.69 63.8532L162.035 62.4949L162.327 61.1253L162.569 59.7449L162.758 58.3542L162.894 56.9534L162.976 55.5435L163.003 54.1242L162.976 52.7054L162.894 51.2953L162.758 49.8945L162.569 48.5039L162.327 47.1234L162.035 45.7537L161.69 44.3954L161.295 43.0486L160.85 41.7141L160.357 40.3921L159.814 39.083L159.225 37.7875L158.588 36.5058L157.904 35.2385L157.174 33.9859L156.401 32.7487L155.582 31.5272L154.719 30.3216L153.813 29.1328L152.866 27.961L151.876 26.8068L150.845 25.6701L149.774 24.552L148.663 23.4528L147.512 22.3728L146.324 21.3122L145.098 20.2721L143.835 19.2526L142.535 18.2539L141.2 17.2768L139.83 16.3216L138.426 15.3888L136.988 14.4789L135.516 13.5922L134.011 12.7292L132.477 11.8903L130.911 11.076L129.313 10.2868L127.687 9.52311L126.032 8.78519L124.348 8.07383L122.637 7.38917L120.899 6.73194L119.134 6.10227L117.344 5.50091L115.529 4.9286L113.689 4.38449L111.826 3.8703L109.94 3.38605L108.032 2.9316L106.102 2.5092L104.151 2.11748L102.179 1.75694L100.189 1.42932L98.1793 1.13338L96.1513 0.871734L94.1058 0.643013L92.0435 0.448214L89.9647 0.28746L87.8706 0.162749L85.7616 0.0720833L83.6381 0.0175843L81.5012 0L79.3644 0.0175843L77.2411 0.0720833L75.132 0.162749L73.0377 0.28746L70.959 0.448214L68.8966 0.643013L66.8511 0.871734L64.8233 1.13338L62.8137 1.42932L60.8227 1.75694L58.8519 2.11748L56.9008 2.5092L54.9709 2.9316L53.0625 3.38605L51.1766 3.8703L49.3134 4.38449L47.4739 4.9286L45.6588 5.50091L43.8686 6.10227L42.1039 6.73194L40.3657 7.38917L38.6543 8.07383L36.9697 8.78519L35.3146 9.52311L33.6884 10.2868L32.0922 11.076L30.526 11.8903L28.9911 12.7292L27.4863 13.5922L26.0152 14.4789L24.5768 15.3888L23.1721 16.3216L21.8025 17.2768L20.4679 18.2539L19.1672 19.2526L17.9052 20.2721L16.6783 21.3122L15.4902 22.3728L14.3397 23.4528L13.2292 24.552L12.1576 25.6701L11.126 26.8068L10.1369 27.961L9.18922 29.1328L8.28281 30.3216L7.42023 31.5272L6.60146 32.7487L5.82777 33.9859L5.09914 35.2385L4.41433 36.5058L3.77709 37.7875L3.18868 39.083L2.64659 40.3921L2.15083 41.7141L1.70764 43.0486L1.31203 44.3954L0.967747 45.7537L0.674794 47.1234L0.43317 48.5039L0.244128 49.8945L0.108919 51.2953L0.0262907 52.7054L0 54.1242L0.0262907 55.5435L0.108919 56.9534L0.12269 57.1014L0.0888875 57.1014M82.2559 96.4398L80.2196 96.4189L78.1994 96.3572L76.1956 96.2538L74.2096 96.1104L72.2423 95.9272L70.2946 95.706L68.3675 95.4457L66.4618 95.148L64.5783 94.8124L62.7184 94.4415L60.8827 94.0342L59.0721 93.5916L57.2878 93.1143L55.5305 92.6038L53.8012 92.0595L52.101 91.4817L50.4306 90.873L48.7911 90.232L47.1835 89.5603L45.6084 88.8586L44.0672 88.1267L42.5605 87.3661L41.0893 86.5773L39.6546 85.7605L38.2578 84.9165L36.8983 84.0461L35.5788 83.1498L34.3006 82.2279L33.0611 81.2814L31.8668 80.3109L30.7113 79.317L29.6033 78.3001L28.5404 77.2612L27.5213 76.2006L26.5498 75.1192L25.6259 74.0171L24.7508 72.8956L23.9258 71.7548L23.1508 70.5955L22.4284 69.4184L21.7574 68.2241L21.1415 67.0129L20.5781 65.786L20.0685 64.5435L19.6191 63.2864L19.2247 62.015L18.888 60.7301L18.61 59.4322L18.3935 58.1222L18.237 56.8005L18.1431 55.4676L18.1105 54.1242L18.1431 52.7811L18.237 51.4482L18.3935 50.1264L18.61 48.8164L18.888 47.5185L19.2247 46.2337L19.6191 44.9623L20.0685 43.7051L20.5781 42.4627L21.1415 41.2357L21.7574 40.0246L22.4284 38.8302L23.1508 37.6532L23.9258 36.494L24.7508 35.3531L25.6259 34.2316L26.5498 33.1297L27.5213 32.048L28.5404 30.9875L29.6033 29.9484L30.7113 28.9316L31.8668 27.9377L33.0611 26.9673L34.3006 26.0208L35.5788 25.0991L36.8983 24.2027L38.2578 23.3322L39.6546 22.4881L41.0893 21.6714L42.5605 20.8823L44.0672 20.1217L45.6084 19.3903L47.1835 18.6883L48.7911 18.0167L50.4306 17.3758L52.101 16.7666L53.8012 16.1896L55.5305 15.6451L57.2878 15.134L59.0721 14.657L60.8827 14.2145L62.7184 13.8075L64.5783 13.4359L66.4618 13.101L68.3675 12.8031L70.2946 12.5431L72.2423 12.3213L74.2096 12.1383L76.1956 11.9951L78.1994 11.892L80.2196 11.8295L82.2559 11.8086L84.2922 11.8295L86.3125 11.892L88.3161 11.9951L90.3021 12.1383L92.2695 12.3213L94.2171 12.5431L96.1444 12.8031L98.0501 13.101L99.9334 13.4359L101.793 13.8075L103.629 14.2145L105.44 14.657L107.224 15.134L108.981 15.6451L110.711 16.1896L112.411 16.7666L114.081 17.3758L115.721 18.0167L117.328 18.6883L118.903 19.3903L120.445 20.1217L121.951 20.8823L123.423 21.6714L124.858 22.4881L126.255 23.3322L127.613 24.2027L128.933 25.0991L130.212 26.0208L131.45 26.9673L132.646 27.9377L133.8 28.9316L134.908 29.9484L135.973 30.9875L136.99 32.048L137.961 33.1297L138.885 34.2316L139.761 35.3531L140.585 36.494L141.36 37.6532L142.083 38.8302L142.754 40.0246L143.371 41.2357L143.935 42.4627L144.442 43.7051L144.894 44.9623L145.287 46.2337L145.623 47.5185L145.901 48.8164L146.119 50.1264L146.275 51.4482L146.369 52.7811L146.4 54.1242L146.369 55.4676L146.275 56.8005L146.119 58.1222L145.901 59.4322L145.623 60.7301L145.287 62.015L144.894 63.2864L144.442 64.5435L143.935 65.786L143.371 67.0129L142.754 68.2241L142.083 69.4184L141.36 70.5955L140.585 71.7548L139.761 72.8956L138.885 74.0171L137.961 75.1192L136.99 76.2006L135.973 77.2612L134.908 78.3001L133.8 79.317L132.646 80.3109L131.45 81.2814L130.212 82.2279L128.933 83.1498L127.613 84.0461L126.255 84.9165L124.858 85.7605L123.423 86.5773L121.951 87.3661L120.445 88.1267L118.903 88.8586L117.328 89.5603L115.721 90.232L114.081 90.873L112.411 91.4817L110.711 92.0595L108.981 92.6038L107.224 93.1143L105.44 93.5916L103.629 94.0342L101.793 94.4415L99.9334 94.8124L98.0501 95.148L96.1444 95.4457L94.2171 95.706L92.2695 95.9272L90.3021 96.1104L88.3161 96.2538L86.3125 96.3572L84.2922 96.4189L82.2559 96.4398"/>
 </g>
</svg>
