<?xml version="1.0" standalone="no"?>
<!DOCTYPE svg PUBLIC "-//W3C//DTD SVG 20010904//EN" "http://www.w3.org/TR/2001/REC-SVG-20010904/DTD/svg10.dtd">
<!-- Created using Karbon, part of Calligra: http://www.calligra.org/karbon -->
<svg xmlns="http://www.w3.org/2000/svg" xmlns:xlink="http://www.w3.org/1999/xlink" width="240pt" height="240pt">
<defs/>
<g id="layer0">
  <path id="path12423" transform="translate(5.4312, 6.63122)" fill="#000080" d="M32.5078 32.4548C-10.7652 75.7268 -10.8712 146.614 32.4018 189.887C69.0648 226.55 125.604 232.137 168.323 206.653L244.667 280.888C255.174 291.086 271.752 290.709 281.784 280.044C291.817 269.379 291.554 252.598 281.046 242.4L205.863 169.536C232.224 126.689 226.871 69.4908 189.835 32.4548C146.562 -10.8183 75.7798 -10.8183 32.5078 32.4548L32.5078 32.4548ZM64.2468 64.1938C90.3488 38.0917 131.993 38.0917 158.095 64.1938C184.197 90.2958 184.197 131.94 158.095 158.042C131.993 184.144 90.3488 184.144 64.2468 158.042C38.1448 131.94 38.1448 90.2958 64.2468 64.1938Z"/>
 </g>
</svg>
