<?xml version="1.0" standalone="no"?>
<!DOCTYPE svg PUBLIC "-//W3C//DTD SVG 20010904//EN" "http://www.w3.org/TR/2001/REC-SVG-20010904/DTD/svg10.dtd">
<!-- Created using Karbon, part of Calligra: http://www.calligra.org/karbon -->
<svg xmlns="http://www.w3.org/2000/svg" xmlns:xlink="http://www.w3.org/1999/xlink" width="595.277pt" height="595.277pt" viewBox="0 0 750 750">
<defs>
  <linearGradient id="gradient0" gradientTransform="" gradientUnits="objectBoundingBox" x1="0.49998958333" y1="0.00000000000" x2="0.49998958333" y2="1.00001041667" spreadMethod="pad">
   <stop stop-color="#4bd0ef" offset="0.00000000000" stop-opacity="1.00000000000"/>
   <stop stop-color="#29aae1" offset="1.00000000000" stop-opacity="1.00000000000"/>
  </linearGradient>
 </defs>
<g id="layer0">
  <path id="shape0" transform="matrix(14.2102 0 0 21.7286 5.4713 0)" fill="url(#gradient0)" fill-rule="evenodd" d="M51.76 29.9854C51.76 32.3507 48.8626 34.269 45.2901 34.269L6.47 34.269C2.89748 34.269 0 32.3507 0 29.9854L0 4.28363C0 1.91836 2.89748 0 6.47 0L45.2901 0C48.8626 0 51.76 1.91836 51.76 4.28363Z"/>
  <path id="shape1" transform="matrix(14.2102 0 0 21.7286 155.318 162.637)" fill="#29aae1" d="M32.8375 2.09112C31.6297 2.44595 30.3325 2.68583 28.9684 2.79364C30.3605 2.24105 31.427 1.36719 31.9306 0.325556C30.6301 0.836735 29.1884 1.20798 27.6517 1.40789C26.4235 0.541165 24.6723 0 22.7345 0C19.0154 0 15.9993 1.99617 15.9993 4.45997C15.9993 4.8098 16.0586 5.14964 16.1729 5.47662C10.5741 5.29028 5.61057 3.51401 2.28822 0.816031C1.70808 1.475 1.37595 2.24105 1.37595 3.05851C1.37595 4.60561 2.56536 5.97138 4.37265 6.77028C3.26843 6.74743 2.22999 6.54682 1.32096 6.21269C1.32096 6.23126 1.32096 6.25053 1.32096 6.26909C1.32096 8.42947 3.64261 10.2321 6.72449 10.642C6.15837 10.7441 5.5642 10.7983 4.94956 10.7983C4.51499 10.7983 4.09336 10.7712 3.68143 10.7198C4.53871 12.4903 7.02643 13.7804 9.97352 13.8169C7.66804 15.0127 4.76301 15.7266 1.6078 15.7266C1.06431 15.7266 0.527305 15.7052 0 15.6631C2.9816 16.9289 6.52176 17.6678 10.3261 17.6678C22.7162 17.6678 29.4925 10.8719 29.4925 4.9783C29.4925 4.78481 29.486 4.
04201 54503.6 29.7817C4.35495 0 0 0 0 0C30.7919 3.77102 31.9349 2.98569 32.8375 2.09112Z"/>
  <path id="shape2" transform="matrix(14.2102 0 0 21.7286 155.318 183.222)" fill="#ffffff" d="M32.8375 2.09041C31.6297 2.44524 30.3325 2.68512 28.9684 2.79292C30.3605 2.24105 31.427 1.36648 31.9306 0.325556C30.6301 0.836735 29.1884 1.20798 27.6517 1.40789C26.4235 0.541165 24.6723 0 22.7345 0C19.0154 0 15.9993 1.99617 15.9993 4.45997C15.9993 4.80909 16.0586 5.14964 16.1729 5.47662C10.5741 5.29028 5.61057 3.51472 2.28822 0.816746C1.70808 1.47571 1.37595 2.24177 1.37595 3.05922C1.37595 4.60633 2.56536 5.97138 4.37265 6.77099C3.26843 6.74815 2.22999 6.54752 1.32096 6.2134C1.32096 6.23196 1.32096 6.25053 1.32096 6.26981C1.32096 8.4309 3.64261 10.2328 6.72449 10.6427C6.15837 10.7455 5.5642 10.799 4.94956 10.799C4.51499 10.799 4.09336 10.7719 3.68143 10.7205C4.53871 12.4918 7.02643 13.7811 9.97352 13.8176C7.66804 15.0141 4.76301 15.7273 1.6078 15.7273C1.06431 15.7273 0.527305 15.7059 0 15.6638C2.9816 16.9296 6.52176 17.6685 10.3261 17.6685C22.7162 17.6685 29.4925 10.8726 29.4925 4.979C29.4925 4.78553 29.486 4.59348 
29.472 4.40215C30.7919 3.77031 31.9349 2.98498 32.8375 2.09041Z"/>
 </g>
</svg>
