<?xml version="1.0" standalone="no"?>
<!DOCTYPE svg PUBLIC "-//W3C//DTD SVG 20010904//EN" "http://www.w3.org/TR/2001/REC-SVG-20010904/DTD/svg10.dtd">
<!-- Created using Karbon, part of Calligra: http://www.calligra.org/karbon -->
<svg xmlns="http://www.w3.org/2000/svg" xmlns:xlink="http://www.w3.org/1999/xlink" width="244.063pt" height="255.969pt">
<defs/>
<g id="layer0">
  <rect id="shape0" transform="translate(0, 2.08458)" fill="#e2e2e2" fill-rule="evenodd" stroke="#000000" stroke-width="0.00000000000" stroke-linecap="square" stroke-linejoin="miter" stroke-miterlimit="2.00000000000" width="243.38658588199pt" height="252.29462909926pt"/>
  <path id="shape1" transform="matrix(1 -0.00348402 0 1 95.9297 31.9067)" fill="#b8b8b8" fill-rule="evenodd" stroke="#000000" stroke-width="0.00000000000" stroke-linecap="square" stroke-linejoin="miter" stroke-miterlimit="2.00000000000" d="M120.345 59.3083C120.345 26.5532 93.405 2.00567e-15 60.1726 0C26.9402 -2.00567e-15 4.06979e-15 26.5532 0 59.3083C-4.06979e-15 92.0634 26.9402 118.617 60.1726 118.617C93.405 118.617 120.345 92.0634 120.345 59.3083"/>
  <path id="shape2" transform="matrix(1 0 0 1 69.5559 162.93)" fill="#b8b8b8" fill-rule="evenodd" stroke="#000000" stroke-width="0.00000000000" stroke-linecap="square" stroke-linejoin="miter" stroke-miterlimit="2.00000000000" d="M0.550496 135.826L173.163 135.451C174.089 56.1135 157.423 1.26103 89.8567 0.153063C25.2634 -2.98871 -4.50529 42.2357 0.550496 135.826Z"/>
 </g>
</svg>
